<svg width="300" height="52" viewBox="0 0 300 52" fill="none" xmlns="http://www.w3.org/2000/svg">
<path d="M2 12.6784C12.0766 12 12.9774 39.6429 18.3816 39.6429C24.1799 39.6429 27.6138 12 32.9055 12C38.1971 12 41.4622 39.4167 47.4856 39.4167C48.4999 39.4167 49.3217 38.8981 50 38.0035" stroke="#374785" stroke-width="4" stroke-linecap="round" stroke-linejoin="round"/>
<path d="M5.42847 26.863C10.7738 24.1043 8.01674 12 12.912 12C19.1576 12 21.6896 39.6429 27.3163 39.6429C33.7769 39.6429 35.6801 13.907 41.2142 12.0998" stroke="#D93F87" stroke-width="4" stroke-linecap="round" stroke-linejoin="round"/>
<path d="M10.1428 39.6429C16.9228 39.6429 16.3013 12 23.4768 12C29.5787 12 31.7822 39.6429 37.7147 39.6429C42.5112 39.6429 40.5962 28.2141 45.2857 23.3161" stroke="#91CCF4" stroke-width="4" stroke-linecap="round" stroke-linejoin="round"/>
<path d="M12.9121 12C19.1577 12 21.6897 39.6429 27.3164 39.6429" stroke="#D93F87" stroke-width="4" stroke-linecap="round" stroke-linejoin="round"/>
<path d="M2 12.6784C12.0766 12 12.9774 39.6429 18.3816 39.6429" stroke="#374785" stroke-width="4" stroke-linecap="round" stroke-linejoin="round"/>
<path d="M32.9054 12C38.197 12 41.4621 39.4167 47.4856 39.4167C48.4998 39.4167 49.3216 38.8981 49.9999 38.0035" stroke="#374785" stroke-width="4" stroke-linecap="round" stroke-linejoin="round"/>
<path d="M66.32 39.228C65.5853 39.228 64.99 39 64.534 38.544C64.1033 38.088 63.888 37.4927 63.888 36.758V14.528C63.888 13.7933 64.0907 13.2233 64.496 12.818C64.9267 12.4127 65.5093 12.21 66.244 12.21H79.582C81.1273 12.21 81.9 12.8687 81.9 14.186C81.9 15.478 81.1273 16.124 79.582 16.124H68.714V23.42H78.822C80.3673 23.42 81.14 24.0787 81.14 25.396C81.14 26.688 80.3673 27.334 78.822 27.334H68.714V36.758C68.714 37.4927 68.4987 38.088 68.068 38.544C67.6373 39 67.0547 39.228 66.32 39.228ZM87.3494 39.228C86.6654 39.228 86.0954 39.038 85.6394 38.658C85.2088 38.2527 84.9934 37.6827 84.9934 36.948V22.28C84.9934 21.5453 85.2088 20.988 85.6394 20.608C86.0954 20.228 86.6654 20.038 87.3494 20.038C88.0334 20.038 88.6034 20.228 89.0594 20.608C89.5154 20.988 89.7434 21.5453 89.7434 22.28V36.948C89.7434 37.6827 89.5154 38.2527 89.0594 38.658C88.6034 39.038 88.0334 39.228 87.3494 39.228ZM87.3494 16.656C86.4881 16.656 85.8041 16.428 85.2974 15.972C84.7908 15.4907 84.5374 14.87 84.5374 14.11C84.5374 13.35 84.7908 12.742 85.2974 12.286C85.8041 11.83 86.4881 11.602 87.3494 11.602C88.1854 11.602 88.8568 11.83 89.3634 12.286C89.8954 12.742 90.1614 13.35 90.1614 14.11C90.1614 14.87 89.9081 15.4907 89.4014 15.972C88.8948 16.428 88.2108 16.656 87.3494 16.656ZM105.32 19.962C106.941 19.962 108.373 20.3547 109.614 21.14C110.855 21.9253 111.818 23.04 112.502 24.484C113.211 25.928 113.566 27.6127 113.566 29.538C113.566 31.4633 113.211 33.1733 112.502 34.668C111.818 36.1373 110.843 37.2773 109.576 38.088C108.335 38.8987 106.916 39.304 105.32 39.304C103.977 39.304 102.774 39.0127 101.71 38.43C100.671 37.8473 99.8732 37.0367 99.3159 35.998V36.948C99.3159 37.632 99.1005 38.1767 98.6699 38.582C98.2392 38.9873 97.6692 39.19 96.9599 39.19C96.2505 39.19 95.6805 38.9873 95.2499 38.582C94.8445 38.1767 94.6419 37.632 94.6419 36.948V14.224C94.6419 13.5653 94.8572 13.0333 95.2879 12.628C95.7439 12.2227 96.3265 12.02 97.0359 12.02C97.7452 12.02 98.3152 12.21 98.7459 12.59C99.1765 12.97 99.3919 13.4893 99.3919 14.148V23.116C99.9492 22.1027 100.747 21.33 101.786 20.798C102.825 20.2407 104.003 19.962 105.32 19.962ZM104.066 35.618C105.561 35.618 106.726 35.086 107.562 34.022C108.398 32.958 108.816 31.4633 108.816 29.538C108.816 27.638 108.398 26.1813 107.562 25.168C106.751 24.1547 105.586 23.648 104.066 23.648C102.546 23.648 101.368 24.1673 100.532 25.206C99.7212 26.2193 99.3159 27.6887 99.3159 29.614C99.3159 31.5393 99.7212 33.0213 100.532 34.06C101.368 35.0987 102.546 35.618 104.066 35.618ZM132.17 33.908C132.601 33.908 132.943 34.0727 133.196 34.402C133.475 34.7313 133.614 35.1747 133.614 35.732C133.614 36.5173 133.145 37.176 132.208 37.708C131.347 38.1893 130.371 38.582 129.282 38.886C128.193 39.1647 127.154 39.304 126.166 39.304C123.177 39.304 120.808 38.4427 119.06 36.72C117.312 34.9973 116.438 32.6413 116.438 29.652C116.438 27.752 116.818 26.0673 117.578 24.598C118.338 23.1287 119.402 21.9887 120.77 21.178C122.163 20.3673 123.734 19.962 125.482 19.962C127.154 19.962 128.611 20.3293 129.852 21.064C131.093 21.7987 132.056 22.8373 132.74 24.18C133.424 25.5227 133.766 27.106 133.766 28.93C133.766 30.0193 133.285 30.564 132.322 30.564H121.112C121.264 32.312 121.758 33.604 122.594 34.44C123.43 35.2507 124.646 35.656 126.242 35.656C127.053 35.656 127.762 35.5547 128.37 35.352C129.003 35.1493 129.713 34.8707 130.498 34.516C131.258 34.1107 131.815 33.908 132.17 33.908ZM125.596 23.306C124.304 23.306 123.265 23.7113 122.48 24.522C121.72 25.3327 121.264 26.498 121.112 28.018H129.7C129.649 26.4727 129.269 25.3073 128.56 24.522C127.851 23.7113 126.863 23.306 125.596 23.306ZM148.026 20.038C148.684 19.9873 149.204 20.1267 149.584 20.456C149.964 20.7853 150.154 21.2793 150.154 21.938C150.154 22.622 149.989 23.1287 149.66 23.458C149.33 23.7873 148.735 24.0027 147.874 24.104L146.734 24.218C145.239 24.37 144.137 24.8767 143.428 25.738C142.744 26.5993 142.402 27.676 142.402 28.968V36.948C142.402 37.6827 142.174 38.2527 141.718 38.658C141.262 39.038 140.692 39.228 140.008 39.228C139.324 39.228 138.754 39.038 138.298 38.658C137.867 38.2527 137.652 37.6827 137.652 36.948V22.242C137.652 21.5327 137.867 20.988 138.298 20.608C138.754 20.228 139.311 20.038 139.97 20.038C140.628 20.038 141.16 20.228 141.566 20.608C141.971 20.9627 142.174 21.482 142.174 22.166V23.686C142.655 22.5713 143.364 21.71 144.302 21.102C145.264 20.494 146.328 20.152 147.494 20.076L148.026 20.038ZM158.739 39.304C155.978 39.304 153.748 38.7593 152.051 37.67C151.24 37.1887 150.835 36.5047 150.835 35.618C150.835 35.1113 150.974 34.706 151.253 34.402C151.532 34.0727 151.874 33.908 152.279 33.908C152.71 33.908 153.305 34.1107 154.065 34.516C154.876 34.896 155.61 35.1873 156.269 35.39C156.953 35.5927 157.814 35.694 158.853 35.694C159.917 35.694 160.74 35.5167 161.323 35.162C161.931 34.8073 162.235 34.3133 162.235 33.68C162.235 33.2493 162.108 32.9073 161.855 32.654C161.627 32.4007 161.196 32.1727 160.563 31.97C159.955 31.742 159.018 31.4887 157.751 31.21C155.496 30.754 153.875 30.108 152.887 29.272C151.924 28.436 151.443 27.2833 151.443 25.814C151.443 24.6993 151.772 23.6987 152.431 22.812C153.09 21.9 153.989 21.2033 155.129 20.722C156.294 20.2153 157.612 19.962 159.081 19.962C160.145 19.962 161.171 20.1013 162.159 20.38C163.147 20.6333 164.034 21.0133 164.819 21.52C165.63 22.0267 166.035 22.698 166.035 23.534C166.035 24.0407 165.896 24.4713 165.617 24.826C165.338 25.1553 164.996 25.32 164.591 25.32C164.312 25.32 164.034 25.2693 163.755 25.168C163.502 25.0413 163.172 24.864 162.767 24.636C162.032 24.256 161.399 23.9773 160.867 23.8C160.335 23.5973 159.676 23.496 158.891 23.496C157.954 23.496 157.206 23.686 156.649 24.066C156.117 24.446 155.851 24.9653 155.851 25.624C155.851 26.2573 156.13 26.7387 156.687 27.068C157.244 27.3973 158.321 27.7267 159.917 28.056C161.614 28.4107 162.944 28.816 163.907 29.272C164.87 29.728 165.554 30.298 165.959 30.982C166.39 31.666 166.605 32.54 166.605 33.604C166.605 35.3267 165.883 36.7073 164.439 37.746C163.02 38.7847 161.12 39.304 158.739 39.304Z" fill="#374785"/>
<path d="M202.623 35.922C202.927 36.378 203.079 36.8213 203.079 37.252C203.079 37.8347 202.838 38.316 202.357 38.696C201.901 39.076 201.356 39.266 200.723 39.266C200.317 39.266 199.925 39.1773 199.545 39C199.19 38.7973 198.886 38.506 198.633 38.126L193.579 30.45C193.072 29.6393 192.527 29.0693 191.945 28.74C191.387 28.4107 190.653 28.246 189.741 28.246H186.017V36.758C186.017 37.518 185.801 38.126 185.371 38.582C184.94 39.0127 184.357 39.228 183.623 39.228C182.888 39.228 182.293 39.0127 181.837 38.582C181.406 38.126 181.191 37.518 181.191 36.758V14.528C181.191 13.7933 181.393 13.2233 181.799 12.818C182.229 12.4127 182.812 12.21 183.547 12.21H193.047C196.087 12.21 198.392 12.894 199.963 14.262C201.559 15.6047 202.357 17.5553 202.357 20.114C202.357 22.1913 201.761 23.9013 200.571 25.244C199.405 26.5613 197.746 27.41 195.593 27.79C196.327 27.9673 196.973 28.284 197.531 28.74C198.088 29.196 198.633 29.8293 199.165 30.64L202.623 35.922ZM192.363 24.484C194.212 24.484 195.567 24.142 196.429 23.458C197.29 22.7487 197.721 21.672 197.721 20.228C197.721 18.7587 197.29 17.6947 196.429 17.036C195.567 16.352 194.212 16.01 192.363 16.01H185.979V24.484H192.363ZM215.669 39.304C213.769 39.304 212.097 38.9113 210.653 38.126C209.234 37.3407 208.132 36.2133 207.347 34.744C206.561 33.2747 206.169 31.5647 206.169 29.614C206.169 27.6633 206.561 25.966 207.347 24.522C208.132 23.0527 209.234 21.9253 210.653 21.14C212.097 20.3547 213.769 19.962 215.669 19.962C217.569 19.962 219.228 20.3547 220.647 21.14C222.091 21.9253 223.193 23.0527 223.953 24.522C224.738 25.966 225.131 27.6633 225.131 29.614C225.131 31.5647 224.738 33.2747 223.953 34.744C223.193 36.2133 222.091 37.3407 220.647 38.126C219.228 38.9113 217.569 39.304 215.669 39.304ZM215.631 35.618C217.176 35.618 218.354 35.1113 219.165 34.098C219.975 33.0847 220.381 31.59 220.381 29.614C220.381 27.6633 219.975 26.1813 219.165 25.168C218.354 24.1293 217.189 23.61 215.669 23.61C214.149 23.61 212.971 24.1293 212.135 25.168C211.324 26.1813 210.919 27.6633 210.919 29.614C210.919 31.59 211.324 33.0847 212.135 34.098C212.945 35.1113 214.111 35.618 215.631 35.618ZM237.298 39.304C235.449 39.304 233.815 38.9113 232.396 38.126C231.003 37.3407 229.926 36.226 229.166 34.782C228.406 33.338 228.026 31.6533 228.026 29.728C228.026 27.8027 228.419 26.1053 229.204 24.636C230.015 23.1413 231.142 21.9887 232.586 21.178C234.03 20.3673 235.689 19.962 237.564 19.962C238.552 19.962 239.54 20.1013 240.528 20.38C241.541 20.6587 242.428 21.0387 243.188 21.52C243.999 22.052 244.404 22.7233 244.404 23.534C244.404 24.0913 244.265 24.5473 243.986 24.902C243.733 25.2313 243.391 25.396 242.96 25.396C242.681 25.396 242.39 25.3327 242.086 25.206C241.782 25.0793 241.478 24.9273 241.174 24.75C240.617 24.4207 240.085 24.1673 239.578 23.99C239.071 23.7873 238.489 23.686 237.83 23.686C236.259 23.686 235.043 24.2053 234.182 25.244C233.346 26.2573 232.928 27.7267 232.928 29.652C232.928 31.552 233.346 33.0213 234.182 34.06C235.043 35.0733 236.259 35.58 237.83 35.58C238.463 35.58 239.021 35.4913 239.502 35.314C240.009 35.1113 240.566 34.8453 241.174 34.516C241.554 34.288 241.883 34.1233 242.162 34.022C242.441 33.8953 242.719 33.832 242.998 33.832C243.403 33.832 243.745 34.0093 244.024 34.364C244.303 34.7187 244.442 35.162 244.442 35.694C244.442 36.1247 244.341 36.5047 244.138 36.834C243.961 37.138 243.657 37.4167 243.226 37.67C242.441 38.1767 241.529 38.582 240.49 38.886C239.451 39.1647 238.387 39.304 237.298 39.304ZM264.137 35.314C264.643 35.7953 264.897 36.34 264.897 36.948C264.897 37.5307 264.681 38.05 264.251 38.506C263.845 38.962 263.364 39.19 262.807 39.19C262.249 39.19 261.73 38.962 261.249 38.506L252.357 30.45V36.948C252.357 37.6827 252.129 38.24 251.673 38.62C251.217 39 250.647 39.19 249.963 39.19C249.279 39.19 248.709 39 248.253 38.62C247.822 38.24 247.607 37.6827 247.607 36.948V14.262C247.607 13.5273 247.822 12.97 248.253 12.59C248.709 12.21 249.279 12.02 249.963 12.02C250.647 12.02 251.217 12.21 251.673 12.59C252.129 12.97 252.357 13.5273 252.357 14.262V28.55L260.489 20.76C260.945 20.304 261.464 20.076 262.047 20.076C262.629 20.076 263.136 20.2913 263.567 20.722C263.997 21.1527 264.213 21.6593 264.213 22.242C264.213 22.8247 263.972 23.3567 263.491 23.838L257.525 29.386L264.137 35.314ZM282.426 33.908C282.857 33.908 283.199 34.0727 283.452 34.402C283.731 34.7313 283.87 35.1747 283.87 35.732C283.87 36.5173 283.401 37.176 282.464 37.708C281.603 38.1893 280.627 38.582 279.538 38.886C278.449 39.1647 277.41 39.304 276.422 39.304C273.433 39.304 271.064 38.4427 269.316 36.72C267.568 34.9973 266.694 32.6413 266.694 29.652C266.694 27.752 267.074 26.0673 267.834 24.598C268.594 23.1287 269.658 21.9887 271.026 21.178C272.419 20.3673 273.99 19.962 275.738 19.962C277.41 19.962 278.867 20.3293 280.108 21.064C281.349 21.7987 282.312 22.8373 282.996 24.18C283.68 25.5227 284.022 27.106 284.022 28.93C284.022 30.0193 283.541 30.564 282.578 30.564H271.368C271.52 32.312 272.014 33.604 272.85 34.44C273.686 35.2507 274.902 35.656 276.498 35.656C277.309 35.656 278.018 35.5547 278.626 35.352C279.259 35.1493 279.969 34.8707 280.754 34.516C281.514 34.1107 282.071 33.908 282.426 33.908ZM275.852 23.306C274.56 23.306 273.521 23.7113 272.736 24.522C271.976 25.3327 271.52 26.498 271.368 28.018H279.956C279.905 26.4727 279.525 25.3073 278.816 24.522C278.107 23.7113 277.119 23.306 275.852 23.306ZM297.3 35.694C298.566 35.77 299.2 36.34 299.2 37.404C299.2 38.012 298.946 38.4807 298.44 38.81C297.958 39.114 297.262 39.2407 296.35 39.19L295.324 39.114C291.068 38.81 288.94 36.53 288.94 32.274V23.99H287.04C286.356 23.99 285.824 23.838 285.444 23.534C285.089 23.23 284.912 22.7867 284.912 22.204C284.912 21.6213 285.089 21.178 285.444 20.874C285.824 20.57 286.356 20.418 287.04 20.418H288.94V16.922C288.94 16.238 289.155 15.6933 289.586 15.288C290.016 14.8827 290.599 14.68 291.334 14.68C292.043 14.68 292.613 14.8827 293.044 15.288C293.474 15.6933 293.69 16.238 293.69 16.922V20.418H296.92C297.604 20.418 298.123 20.57 298.478 20.874C298.858 21.178 299.048 21.6213 299.048 22.204C299.048 22.7867 298.858 23.23 298.478 23.534C298.123 23.838 297.604 23.99 296.92 23.99H293.69V32.616C293.69 34.4907 294.551 35.4913 296.274 35.618L297.3 35.694Z" fill="#D93F87"/>
</svg>
