<svg width="325" height="252" viewBox="0 0 325 252" fill="none" xmlns="http://www.w3.org/2000/svg">
<mask id="mask0" mask-type="alpha" maskUnits="userSpaceOnUse" x="54" y="0" width="185" height="145">
<path d="M63 77.3605C87.945 64.4868 75.0786 8 97.923 8C127.069 8 138.885 137 165.143 137C195.293 137 204.174 16.8994 230 8.4659" stroke="#D93F87" stroke-width="16" stroke-linecap="round" stroke-linejoin="round"/>
</mask>
<g mask="url(#mask0)">
<path d="M63 77.3605C87.945 64.4868 75.0786 8 97.923 8C127.069 8 138.885 137 165.143 137C195.293 137 204.174 16.8994 230 8.4659" stroke="#D93F87" stroke-width="16" stroke-linecap="round" stroke-linejoin="round"/>
<rect style="mix-blend-mode:multiply" x="81.9703" y="3.7887" width="35.0721" height="17.0768" transform="rotate(54.8939 81.9703 3.7887)" fill="url(#paint0_linear)" fill-opacity="0.25"/>
<rect style="mix-blend-mode:multiply" x="219.36" width="35.0721" height="23.6648" transform="rotate(54.8939 219.36 0)" fill="url(#paint1_linear)" fill-opacity="0.18"/>
<rect style="mix-blend-mode:multiply" x="196.36" y="67" width="35.0721" height="23.6648" transform="rotate(54.8939 196.36 67)" fill="url(#paint2_linear)" fill-opacity="0.25"/>
<rect style="mix-blend-mode:multiply" x="69.7462" y="81.3402" width="34.1171" height="23.6648" transform="rotate(-119.396 69.7462 81.3402)" fill="url(#paint3_linear)" fill-opacity="0.15"/>
<rect style="mix-blend-mode:multiply" x="176.746" y="138.34" width="34.1171" height="23.6648" transform="rotate(-119.396 176.746 138.34)" fill="url(#paint4_linear)" fill-opacity="0.2"/>
<rect style="mix-blend-mode:multiply" x="199.246" y="93.812" width="50.8365" height="33.658" transform="rotate(-119.396 199.246 93.812)" fill="url(#paint5_linear)" fill-opacity="0.25"/>
</g>
<mask id="mask1" mask-type="alpha" maskUnits="userSpaceOnUse" x="38" y="0" width="242" height="145">
<path d="M47 11.1657C94.0244 8.00003 98.2277 137 123.447 137C150.506 137 166.531 8.00003 191.226 8.00003C215.92 8.00003 231.157 135.945 259.266 135.945C264 135.945 267.834 133.525 271 129.35" stroke="#374785" stroke-width="16" stroke-linecap="round" stroke-linejoin="round"/>
</mask>
<g mask="url(#mask1)">
<path d="M47 11.1657C94.0244 8.00003 98.2277 137 123.447 137C150.506 137 166.531 8.00003 191.226 8.00003C215.92 8.00003 231.157 135.945 259.266 135.945C264 135.945 267.834 133.525 271 129.35" stroke="#374785" stroke-width="16" stroke-linecap="round" stroke-linejoin="round"/>
<rect style="mix-blend-mode:multiply" x="132.241" y="155.321" width="62.0403" height="23.6648" transform="rotate(-108.068 132.241 155.321)" fill="url(#paint6_linear)" fill-opacity="0.22"/>
<rect style="mix-blend-mode:multiply" x="162.241" y="89.3206" width="62.0403" height="23.6648" transform="rotate(-108.068 162.241 89.3206)" fill="url(#paint7_linear)" fill-opacity="0.22"/>
<rect style="mix-blend-mode:multiply" x="155.155" y="64" width="62.0403" height="23.6648" transform="rotate(69.4201 155.155 64)" fill="url(#paint8_linear)" fill-opacity="0.22"/>
<rect style="mix-blend-mode:multiply" x="174.391" y="-14" width="62.0403" height="23.6648" transform="rotate(64.6787 174.391 -14)" fill="url(#paint9_linear)" fill-opacity="0.22"/>
</g>
<mask id="mask2" mask-type="alpha" maskUnits="userSpaceOnUse" x="77" y="0" width="180" height="145">
<path d="M85 137C116.64 137 113.74 8 147.225 8C175.701 8 185.984 137 213.669 137C236.052 137 227.116 83.666 249 60.8086" stroke="#91CCF4" stroke-width="16" stroke-linecap="round" stroke-linejoin="round"/>
</mask>
<g mask="url(#mask2)">
<path d="M85 137C116.64 137 113.74 8 147.225 8C175.701 8 185.984 137 213.669 137C236.052 137 227.116 83.666 249 60.8086" stroke="#91CCF4" stroke-width="16" stroke-linecap="round" stroke-linejoin="round"/>
<rect style="mix-blend-mode:multiply" x="124.556" y="98.069" width="62.0403" height="16.2961" transform="rotate(-109.447 124.556 98.069)" fill="url(#paint10_linear)" fill-opacity="0.25"/>
<rect style="mix-blend-mode:multiply" x="128.023" y="-7.88025" width="62.0403" height="19.9519" transform="rotate(72.4472 128.023 -7.88025)" fill="url(#paint11_linear)" fill-opacity="0.15"/>
<rect style="mix-blend-mode:multiply" x="244.563" y="46" width="62.0403" height="23.6648" transform="rotate(72.4472 244.563 46)" fill="url(#paint12_linear)" fill-opacity="0.13"/>
<rect style="mix-blend-mode:multiply" x="228.595" y="148.248" width="62.0403" height="16.9817" transform="rotate(-108.068 228.595 148.248)" fill="url(#paint13_linear)" fill-opacity="0.18"/>
</g>
<path d="M97.923 8C127.069 8 138.885 137 165.143 137" stroke="#D93F87" stroke-width="16" stroke-linecap="round" stroke-linejoin="round"/>
<path d="M47 11.1657C94.0244 8.00002 98.2277 137 123.447 137" stroke="#374785" stroke-width="16" stroke-linecap="round" stroke-linejoin="round"/>
<path d="M191.226 8C215.92 8 231.157 135.945 259.266 135.945C264 135.945 267.834 133.525 271 129.35" stroke="#374785" stroke-width="16" stroke-linecap="round" stroke-linejoin="round"/>
<path d="M64.386 205.534C65.562 207.298 66.15 208.964 66.15 210.532C66.15 212.623 65.268 214.387 63.504 215.824C61.8053 217.196 59.8127 217.882 57.526 217.882C55.958 217.882 54.488 217.523 53.116 216.804C51.744 216.085 50.568 215.007 49.588 213.57L36.848 194.95C35.9333 193.643 34.9533 192.696 33.908 192.108C32.928 191.455 31.752 191.128 30.38 191.128H24.01V208.67C24.01 211.414 23.226 213.603 21.658 215.236C20.09 216.804 17.934 217.588 15.19 217.588C12.446 217.588 10.2573 216.804 8.624 215.236C7.056 213.603 6.272 211.414 6.272 208.67V156.24C6.272 153.561 6.99067 151.503 8.428 150.066C9.86533 148.629 11.9233 147.91 14.602 147.91H39.2C47.5627 147.91 53.8347 149.739 58.016 153.398C62.2627 156.991 64.386 162.218 64.386 169.078C64.386 174.305 62.9487 178.747 60.074 182.406C57.1993 185.999 53.1487 188.417 47.922 189.658C50.078 189.985 51.94 190.703 53.508 191.814C55.1413 192.925 56.742 194.591 58.31 196.812L64.386 205.534ZM36.358 177.604C40.3433 177.604 43.1853 176.983 44.884 175.742C46.648 174.501 47.53 172.475 47.53 169.666C47.53 166.791 46.648 164.733 44.884 163.492C43.1853 162.185 40.3433 161.532 36.358 161.532H23.814V177.604H36.358ZM98.6891 217.784C93.3971 217.784 88.7257 216.771 84.6751 214.746C80.6897 212.655 77.5864 209.715 75.3651 205.926C73.2091 202.137 72.1311 197.694 72.1311 192.598C72.1311 187.502 73.2091 183.092 75.3651 179.368C77.5864 175.579 80.6897 172.671 84.6751 170.646C88.6604 168.621 93.3317 167.608 98.6891 167.608C104.046 167.608 108.718 168.621 112.703 170.646C116.688 172.671 119.759 175.579 121.915 179.368C124.136 183.092 125.247 187.502 125.247 192.598C125.247 197.694 124.136 202.137 121.915 205.926C119.759 209.715 116.688 212.655 112.703 214.746C108.718 216.771 104.046 217.784 98.6891 217.784ZM98.6891 204.75C104.896 204.75 107.999 200.699 107.999 192.598C107.999 184.497 104.896 180.446 98.6891 180.446C92.4824 180.446 89.3791 184.497 89.3791 192.598C89.3791 200.699 92.4824 204.75 98.6891 204.75ZM156.373 217.784C148.533 217.784 142.326 215.563 137.753 211.12C133.179 206.677 130.893 200.634 130.893 192.99C130.893 187.959 132.003 183.517 134.225 179.662C136.446 175.807 139.549 172.835 143.535 170.744C147.585 168.653 152.191 167.608 157.353 167.608C160.097 167.608 162.841 167.967 165.585 168.686C168.329 169.405 170.746 170.417 172.837 171.724C174.862 172.965 175.875 174.86 175.875 177.408C175.875 179.433 175.385 181.099 174.405 182.406C173.49 183.647 172.281 184.268 170.779 184.268C169.799 184.268 168.851 184.137 167.937 183.876C167.022 183.549 166.009 183.092 164.899 182.504C163.592 181.916 162.481 181.491 161.567 181.23C160.652 180.903 159.639 180.74 158.529 180.74C152.061 180.74 148.827 184.693 148.827 192.598C148.827 196.518 149.643 199.523 151.277 201.614C152.975 203.639 155.393 204.652 158.529 204.652C159.639 204.652 160.652 204.521 161.567 204.26C162.547 203.933 163.625 203.476 164.801 202.888C166.107 202.3 167.153 201.875 167.937 201.614C168.786 201.287 169.701 201.124 170.681 201.124C172.183 201.124 173.392 201.777 174.307 203.084C175.287 204.325 175.777 205.959 175.777 207.984C175.777 209.225 175.515 210.369 174.993 211.414C174.47 212.394 173.751 213.145 172.837 213.668C168.329 216.412 162.841 217.784 156.373 217.784ZM230.265 203.476C231.963 205.109 232.813 207.004 232.813 209.16C232.813 211.316 232.029 213.243 230.461 214.942C228.958 216.641 227.129 217.49 224.973 217.49C223.143 217.49 221.314 216.673 219.485 215.04L199.591 196.126V209.356C199.591 212.035 198.741 214.06 197.043 215.432C195.409 216.804 193.351 217.49 190.869 217.49C188.386 217.49 186.295 216.804 184.597 215.432C182.963 214.06 182.147 212.035 182.147 209.356V155.554C182.147 152.875 182.963 150.85 184.597 149.478C186.295 148.106 188.386 147.42 190.869 147.42C193.351 147.42 195.409 148.106 197.043 149.478C198.741 150.85 199.591 152.875 199.591 155.554V188.776L217.721 170.352C219.354 168.653 221.249 167.804 223.405 167.804C225.495 167.804 227.325 168.621 228.893 170.254C230.526 171.822 231.343 173.619 231.343 175.644C231.343 177.669 230.493 179.531 228.795 181.23L218.113 191.814L230.265 203.476ZM277.812 201.516C279.314 201.516 280.523 202.104 281.438 203.28C282.418 204.456 282.908 205.991 282.908 207.886C282.908 210.499 281.634 212.492 279.086 213.864C276.864 214.975 274.218 215.922 271.148 216.706C268.142 217.425 265.366 217.784 262.818 217.784C257.46 217.784 252.789 216.771 248.804 214.746C244.818 212.721 241.748 209.813 239.592 206.024C237.436 202.235 236.358 197.792 236.358 192.696C236.358 187.861 237.37 183.549 239.396 179.76C241.486 175.905 244.361 172.933 248.02 170.842C251.744 168.686 255.925 167.608 260.564 167.608C265.072 167.608 269.024 168.588 272.422 170.548C275.819 172.508 278.432 175.285 280.262 178.878C282.156 182.471 283.104 186.685 283.104 191.52C283.104 193.023 282.744 194.199 282.026 195.048C281.372 195.832 280.392 196.224 279.086 196.224H253.214C253.671 199.36 254.684 201.614 256.252 202.986C257.82 204.358 260.139 205.044 263.21 205.044C264.843 205.044 266.346 204.881 267.718 204.554C269.09 204.162 270.625 203.639 272.324 202.986C273.304 202.594 274.251 202.267 275.166 202.006C276.146 201.679 277.028 201.516 277.812 201.516ZM261.054 179.368C258.767 179.368 256.938 180.119 255.566 181.622C254.194 183.059 253.377 185.183 253.116 187.992H268.502C268.11 182.243 265.627 179.368 261.054 179.368ZM318.427 205.142C322.804 205.403 324.993 207.363 324.993 211.022C324.993 213.309 324.111 215.007 322.347 216.118C320.583 217.229 318.067 217.686 314.801 217.49L312.057 217.294C306.177 216.837 301.701 215.073 298.631 212.002C295.625 208.866 294.123 204.521 294.123 198.968V181.622H291.28C286.054 181.622 283.44 179.466 283.44 175.154C283.44 170.907 286.054 168.784 291.28 168.784H294.123V162.414C294.123 159.931 294.907 157.971 296.475 156.534C298.043 155.031 300.166 154.28 302.845 154.28C305.523 154.28 307.647 155.031 309.215 156.534C310.783 157.971 311.567 159.931 311.567 162.414V168.784H316.957C322.183 168.784 324.797 170.907 324.797 175.154C324.797 179.466 322.183 181.622 316.957 181.622H311.567V200.438C311.567 201.679 311.926 202.725 312.645 203.574C313.429 204.423 314.409 204.881 315.585 204.946L318.427 205.142Z" fill="#D93F87"/>
<defs>
<linearGradient id="paint0_linear" x1="99.5064" y1="3.7887" x2="99.5064" y2="20.8655" gradientUnits="userSpaceOnUse">
<stop stop-opacity="0"/>
<stop offset="1"/>
</linearGradient>
<linearGradient id="paint1_linear" x1="236.896" y1="0" x2="236.896" y2="23.6648" gradientUnits="userSpaceOnUse">
<stop stop-opacity="0"/>
<stop offset="1"/>
</linearGradient>
<linearGradient id="paint2_linear" x1="213.896" y1="67" x2="213.896" y2="90.6648" gradientUnits="userSpaceOnUse">
<stop stop-opacity="0"/>
<stop offset="1"/>
</linearGradient>
<linearGradient id="paint3_linear" x1="86.8048" y1="81.3402" x2="86.8048" y2="105.005" gradientUnits="userSpaceOnUse">
<stop stop-opacity="0"/>
<stop offset="1"/>
</linearGradient>
<linearGradient id="paint4_linear" x1="193.805" y1="138.34" x2="193.805" y2="162.005" gradientUnits="userSpaceOnUse">
<stop stop-opacity="0"/>
<stop offset="1"/>
</linearGradient>
<linearGradient id="paint5_linear" x1="224.664" y1="93.812" x2="224.664" y2="127.47" gradientUnits="userSpaceOnUse">
<stop stop-opacity="0"/>
<stop offset="1"/>
</linearGradient>
<linearGradient id="paint6_linear" x1="163.261" y1="155.321" x2="163.261" y2="178.985" gradientUnits="userSpaceOnUse">
<stop stop-opacity="0"/>
<stop offset="1"/>
</linearGradient>
<linearGradient id="paint7_linear" x1="193.261" y1="89.3206" x2="193.261" y2="112.985" gradientUnits="userSpaceOnUse">
<stop stop-opacity="0"/>
<stop offset="1"/>
</linearGradient>
<linearGradient id="paint8_linear" x1="186.175" y1="64" x2="186.175" y2="87.6648" gradientUnits="userSpaceOnUse">
<stop stop-opacity="0"/>
<stop offset="1"/>
</linearGradient>
<linearGradient id="paint9_linear" x1="205.411" y1="-14" x2="205.411" y2="9.66482" gradientUnits="userSpaceOnUse">
<stop stop-opacity="0"/>
<stop offset="1"/>
</linearGradient>
<linearGradient id="paint10_linear" x1="155.576" y1="98.069" x2="155.576" y2="114.365" gradientUnits="userSpaceOnUse">
<stop stop-opacity="0"/>
<stop offset="1"/>
</linearGradient>
<linearGradient id="paint11_linear" x1="159.043" y1="-7.88025" x2="159.043" y2="12.0717" gradientUnits="userSpaceOnUse">
<stop stop-opacity="0"/>
<stop offset="1"/>
</linearGradient>
<linearGradient id="paint12_linear" x1="275.583" y1="46" x2="275.583" y2="69.6648" gradientUnits="userSpaceOnUse">
<stop stop-opacity="0"/>
<stop offset="1"/>
</linearGradient>
<linearGradient id="paint13_linear" x1="259.615" y1="148.248" x2="259.615" y2="165.23" gradientUnits="userSpaceOnUse">
<stop stop-opacity="0"/>
<stop offset="1"/>
</linearGradient>
</defs>
</svg>
